<svg xmlns="http://www.w3.org/2000/svg" viewBox="0 0 282.76 41.43"><defs><style>.cls-1{fill:#221714;}.cls-2{fill:#231815;}</style></defs><g id="レイヤー_2" data-name="レイヤー 2"><g id="レイヤー_1-2" data-name="レイヤー 1"><polygon class="cls-1" points="15.08 41.3 15.08 24.01 8.24 24.01 8.24 41.3 0 41.3 0 0 8.24 0 8.24 16.59 15.08 16.59 15.08 0 23.32 0 23.32 41.3 15.08 41.3"/><polygon class="cls-1" points="41.82 0.14 50.4 0.14 59.62 41.43 50.58 41.43 46.11 12.26 41.59 41.43 32.54 41.43 41.82 0.14"/><polygon class="cls-1" points="85.67 41.3 79.75 26.22 77.08 31.78 77.08 41.3 68.84 41.3 68.84 0 77.08 0 77.08 17.75 84.91 0 93.15 0 84.91 17.17 94.48 41.3 85.67 41.3"/><polygon class="cls-1" points="120.64 41.3 114.72 26.22 112.05 31.78 112.05 41.3 103.82 41.3 103.82 0 112.05 0 112.05 17.75 119.88 0 128.12 0 119.88 17.17 129.45 41.3 120.64 41.3"/><polygon class="cls-1" points="138.79 41.3 138.79 0 157.81 0 157.81 7.42 147.03 7.42 147.03 16.76 156.31 16.76 156.31 24.19 147.03 24.19 147.03 33.87 157.81 33.87 157.81 41.3 138.79 41.3"/><polygon class="cls-1" points="185.66 41.3 176.9 21.11 176.9 41.3 168.66 41.3 168.66 0 175.85 0 184.44 20.18 184.44 0 192.67 0 192.67 41.3 185.66 41.3"/><path class="cls-2" d="M205.55,16.7h2.95l1.06,5.62h0l1-5.62h2.92v8.56h-1.87V18.59h0l-1.3,6.67h-1.56l-1.38-6.67h0v6.67h-1.8Z"/><path class="cls-2" d="M217.22,16.7h2.52l2.14,8.56h-2.09l-.31-1.63h-2l-.3,1.63H215Zm1.23,1.56h0l-.7,3.81h1.46Z"/><path class="cls-2" d="M223.36,16.7h2.32l1.65,5.56h0V16.7h1.87v8.56H227l-1.76-5.9h0v5.9h-1.8Z"/><path class="cls-2" d="M232.89,16.7h2.52l2.13,8.56h-2.08l-.32-1.63h-2l-.3,1.63h-2.08Zm1.22,1.56h0l-.71,3.81h1.46Z"/><path class="cls-2" d="M242.46,19.3c0-.55-.06-1.42-.8-1.42s-.92.83-.92,3.11.12,3.1.92,3.1.92-.63.92-1.8V22h-.94V20.67h2.82v4.59h-1.38l-.05-.81h0a1.79,1.79,0,0,1-1.84,1c-2.15,0-2.51-1.59-2.51-4.27s.19-4.63,3-4.63c2.6,0,2.71,1.8,2.71,2.77Z"/><path class="cls-2" d="M246.29,16.7h5v1.63H248.3v1.72h2.76v1.63H248.3v1.95h3.08v1.63h-5.09Z"/><path class="cls-2" d="M253.07,16.7H256l1.06,5.62h0l1-5.62H261v8.56h-1.87V18.59h0l-1.31,6.67h-1.56l-1.38-6.67h0v6.67h-1.8Z"/><path class="cls-2" d="M263,16.7h5v1.63h-2.93v1.72h2.75v1.63h-2.75v1.95h3.07v1.63H263Z"/><path class="cls-2" d="M269.78,16.7h2.32l1.65,5.56h0V16.7h1.87v8.56h-2.28l-1.77-5.9h0v5.9h-1.8Z"/><path class="cls-2" d="M279,18.33h-1.8V16.7h5.61v1.63H281v6.93h-2Z"/><path class="cls-2" d="M207.16,38.65V39c0,.65.18,1.14.88,1.14s.91-.53.91-1c0-1.85-3.68-.82-3.68-4,0-1.37.73-2.52,2.8-2.52s2.74,1,2.74,2.34v.2h-1.94a1.8,1.8,0,0,0-.17-.9.64.64,0,0,0-.61-.29c-.51,0-.81.29-.81.92,0,1.79,3.68.89,3.68,3.91,0,1.94-1.08,2.72-2.92,2.72-1.47,0-2.82-.44-2.82-2.23v-.55Z"/><path class="cls-2" d="M214.12,37.89,212,32.7h2.23l1,3.18h0l1-3.18h2.16l-2.17,5.19v3.37h-2Z"/><path class="cls-2" d="M221.27,38.65V39c0,.65.18,1.14.87,1.14s.91-.53.91-1c0-1.85-3.68-.82-3.68-4,0-1.37.73-2.52,2.81-2.52s2.73,1,2.73,2.34v.2H223a1.8,1.8,0,0,0-.17-.9.63.63,0,0,0-.61-.29c-.5,0-.8.29-.8.92,0,1.79,3.68.89,3.68,3.91,0,1.94-1.08,2.72-2.93,2.72-1.46,0-2.82-.44-2.82-2.23v-.55Z"/><path class="cls-2" d="M228.14,34.33h-1.8V32.7H232v1.63h-1.8v6.93h-2Z"/><path class="cls-2" d="M233.46,32.7h4.95v1.63h-2.93v1.72h2.75v1.63h-2.75v2h3.07v1.63h-5.09Z"/><path class="cls-2" d="M240.24,32.7h2.95l1.06,5.62h0l1-5.62h2.91v8.56h-1.87V34.59h0L245,41.26h-1.56l-1.38-6.67h0v6.67h-1.8Z"/></g></g></svg>