<svg xmlns="http://www.w3.org/2000/svg" viewBox="0 0 36.78 78.46"><defs><style>.cls-1{fill:#b5b5b6;}</style></defs><g id="レイヤー_2" data-name="レイヤー 2"><path class="cls-1" d="M36.11,41.71,28.25,33a4.43,4.43,0,0,1-1-2.38l-.29-9V21.4a2.52,2.52,0,0,0-2.51-2.51H13.74a3.75,3.75,0,0,0-3.15,2L.24,42.88A2.48,2.48,0,0,0,1.48,46.2L3,46.87a2.61,2.61,0,0,0,1,.22H4a2.62,2.62,0,0,0,2.34-1.43L11.23,36v9.7l-.07.16L3,71.54a4,4,0,0,0,2.8,5.13l.54.15A4.18,4.18,0,0,0,7.41,77a4.41,4.41,0,0,0,4.17-3l7.66-24L22,56.62a27.63,27.63,0,0,1,1.56,6.2l1.3,12.26a3.69,3.69,0,0,0,3.69,3.38,4.33,4.33,0,0,0,.95-.11l.56-.14a4.69,4.69,0,0,0,3.46-5L31.54,58.24a29.14,29.14,0,0,0-1.82-6.62l-2.6-6a1.55,1.55,0,0,0-.12-.22V41.35l4.68,4.89a2.4,2.4,0,0,0,1.76.75,2.44,2.44,0,0,0,1.77-.76l.86-.92A2.69,2.69,0,0,0,36.11,41.71Z"/><path class="cls-1" d="M19.81,16.76a8.38,8.38,0,1,0-8.38-8.38A8.39,8.39,0,0,0,19.81,16.76Z"/></g></svg>