<svg width="59" height="96" viewBox="0 0 59 96" fill="none" xmlns="http://www.w3.org/2000/svg">
<path d="M6.17762 65.3813L9.88906 54.7806C11.3097 50.719 15.1414 48 19.4445 48H38.5555C42.8586 48 46.6871 50.719 48.1109 54.7806L51.8234 65.3813C54.2703 66.3938 56 68.809 56 71.625V91.875C56 93.7418 54.4918 95.25 52.625 95.25H49.25C47.3832 95.25 45.875 93.7418 45.875 91.875V86.8125H12.125V91.875C12.125 93.7418 10.6136 95.25 8.75 95.25H5.375C3.51137 95.25 2 93.7418 2 91.875V71.625C2 68.809 3.72547 66.3938 6.17762 65.3813ZM13.5066 64.875H44.4934L41.7406 57.007C41.266 55.657 39.9898 54.75 38.5555 54.75H19.4445C18.0102 54.75 16.734 55.657 16.2594 57.007L13.5066 64.875ZM12.125 71.625C10.2614 71.625 8.75 73.1332 8.75 75C8.75 76.8668 10.2614 78.375 12.125 78.375C13.9918 78.375 15.5 76.8668 15.5 75C15.5 73.1332 13.9918 71.625 12.125 71.625ZM45.875 78.375C47.7418 78.375 49.25 76.8668 49.25 75C49.25 73.1332 47.7418 71.625 45.875 71.625C44.0082 71.625 42.5 73.1332 42.5 75C42.5 76.8668 44.0082 78.375 45.875 78.375Z" fill="#B5B5B6"/>
<path d="M32.4886 22.5505L36.2621 22.6525C36.772 22.5505 37.2593 22.7545 37.6219 23.1171L39.8883 25.3835L42.1547 23.1171C42.9083 22.3635 44.1208 22.3635 44.8743 23.1171L47.1407 25.3835L49.4071 23.1171C50.1607 22.3635 51.3732 22.3635 52.1268 23.1171L56.6595 27.6498C57.4103 28.4006 57.4131 29.6159 56.6595 30.3695L52.1268 34.9023C51.7641 35.2649 51.2752 35.4672 50.7653 35.4672L32.4886 35.4689C31.837 36.7324 30.9758 37.9222 29.9162 38.9817C24.4089 44.4891 15.4794 44.4891 9.97208 38.9817C4.46477 33.4744 4.46477 24.5449 9.97208 19.0376C15.4794 13.5303 24.4089 13.5303 29.9162 19.0376C30.9758 20.0971 31.837 21.287 32.4886 22.5505ZM17.6778 26.7433C16.4256 25.4911 14.3972 25.4911 13.145 26.7433C11.8928 27.9955 11.8928 30.0239 13.145 31.2761C14.3972 32.5282 16.4256 32.5282 17.6778 31.2761C18.9299 30.0239 18.9299 27.9955 17.6778 26.7433Z" fill="#B5B5B6"/>
</svg>
