<svg xmlns="http://www.w3.org/2000/svg" viewBox="0 0 59.57 75.23"><defs><style>.cls-1{fill:#b5b5b6;}</style></defs><g id="レイヤー_2" data-name="レイヤー 2"><path class="cls-1" d="M22.78,56.78a1.16,1.16,0,0,0-1.16,1.15v3.36a1.16,1.16,0,0,0,1.16,1.15h14A1.16,1.16,0,0,0,38,61.29V57.93a1.16,1.16,0,0,0-1.15-1.15ZM9.36,62.44h9.82V57.93a3.6,3.6,0,0,1,3.6-3.59h14a3.59,3.59,0,0,1,3.59,3.59v4.51h9.82a6.93,6.93,0,0,0,6.91-6.91V10.37C57.12,3.8,53.32,0,46.76,0H12.82C6.25,0,2.45,3.8,2.45,10.37V55.53A6.93,6.93,0,0,0,9.36,62.44Zm42.9-11.9a1.72,1.72,0,0,1-1.73,1.73h-2.2a1.72,1.72,0,0,1-1.73-1.73V45a1.73,1.73,0,0,1,1.73-1.73h2.2A1.73,1.73,0,0,1,52.26,45ZM16,5.51a1.74,1.74,0,0,1,1.73-1.73H41.82a1.73,1.73,0,0,1,1.72,1.73V8.76a1.73,1.73,0,0,1-1.72,1.73H17.76A1.74,1.74,0,0,1,16,8.76ZM7.35,30.58l1.4-13.15a4.21,4.21,0,0,1,4.09-3.69H46.73a4.23,4.23,0,0,1,4.1,3.69l1.39,13.15a3.26,3.26,0,0,1-3.31,3.68H10.67A3.27,3.27,0,0,1,7.35,30.58ZM7.31,45A1.74,1.74,0,0,1,9,43.3h2.21A1.73,1.73,0,0,1,13,45v5.51a1.72,1.72,0,0,1-1.72,1.73H9a1.73,1.73,0,0,1-1.73-1.73Zm42.75,19.2H47l1.34,2H11.22l1.34-2h-3L0,75.23H5.18l1.65-2.46H52.74l1.65,2.46h5.18ZM7.93,71.13l2.19-3.27H49.45l2.19,3.27Z"/></g></svg>