<svg xmlns="http://www.w3.org/2000/svg" viewBox="0 0 65.98 65.98"><defs><style>.cls-1{fill:#b5b5b6;}</style></defs><g id="レイヤー_2" data-name="レイヤー 2"><path class="cls-1" d="M0,45.45l2.78-2.76L16.62,44.6c3.65-5.2,8.79-11.75,14.12-18L2.5,3.43,8,0,18.54,5l.1-.12a2.49,2.49,0,0,1,4.21,2.17L27.5,9.29l0,0a2.48,2.48,0,0,1,4.22,2.07l9.08,4.32.14-.15C54.34,2.12,63.55-.69,65.09.86S63.85,11.62,50.49,25l-.15.15,4.32,9.08a2.48,2.48,0,0,1,2.07,4.22l0,0,2.21,4.66a2.49,2.49,0,0,1,2.17,4.21s-.08.06-.12.1L66,58l-3.43,5.49L39.34,35.25c-6.2,5.34-12.75,10.49-18,14.15l1.91,13.79L20.52,66,13.66,54.15c-1.12.5-1.89.66-2.17.38s-.13-1.06.38-2.19Z"/></g></svg>