<svg width="64" height="70" viewBox="0 0 64 70" fill="none" xmlns="http://www.w3.org/2000/svg">
<path d="M57.6007 63.6364C53.1533 63.6364 48.7058 62.1409 44.8022 59.4364C36.9951 64.8773 27.0123 64.8773 19.2052 59.4364C15.3017 62.1409 10.8542 63.6364 6.40671 63.6364H0.00745533V70H6.40671C10.8222 70 15.1737 68.8864 19.2052 66.85C27.2683 70.9545 36.7392 70.9545 44.8022 66.85C48.8338 68.9182 53.1853 70 57.6007 70H64V63.6364H57.6007ZM6.24673 57.2727H6.40671C11.5261 57.2727 16.0696 54.4727 19.2052 50.9091C22.3409 54.4727 26.8843 57.2727 32.0037 57.2727C37.1231 57.2727 41.6666 54.4727 44.8022 50.9091C47.9379 54.4727 52.4813 57.2727 57.6007 57.2727H57.7607L63.808 36.0182C64.064 35.1909 64 34.3 63.616 33.5364C63.2321 32.7727 62.5282 32.2 61.6963 31.9455L57.6007 30.6091V15.9091C57.6007 12.4091 54.7211 9.54545 51.2015 9.54545H41.6026V0H22.4048V9.54545H12.806C9.28637 9.54545 6.40671 12.4091 6.40671 15.9091V30.6091L2.27919 31.9455C1.44729 32.2 0.743369 32.7727 0.359414 33.5364C-0.0245413 34.3 -0.12053 35.1909 0.167437 36.0182L6.24673 57.2727ZM12.806 15.9091H51.2015V28.5409L32.0037 22.2727L12.806 28.5409V15.9091Z" fill="#B5B5B6"/>
</svg>
