<svg xmlns="http://www.w3.org/2000/svg" viewBox="0 0 69.56 71.2"><defs><style>.cls-1{fill:#b5b5b6;}</style></defs><g id="レイヤー_2" data-name="レイヤー 2"><path class="cls-1" d="M67.9,11.7h-5V4a4,4,0,0,0-4-4H10.61a4,4,0,0,0-4,4V11.7h-5A1.67,1.67,0,0,0,0,13.36v7.91a1.66,1.66,0,0,0,1.66,1.66H3.12a1.66,1.66,0,0,0,1.67-1.66V13.62H6.65V59.21a4,4,0,0,0,2,3.41V69a2.18,2.18,0,0,0,2.18,2.17h5A2.18,2.18,0,0,0,18,69V63.17H51.6V69a2.18,2.18,0,0,0,2.18,2.17h5A2.18,2.18,0,0,0,60.92,69V62.62a4,4,0,0,0,2-3.41V13.62h1.87v7.65a1.66,1.66,0,0,0,1.66,1.66H67.9a1.66,1.66,0,0,0,1.66-1.66V13.36A1.67,1.67,0,0,0,67.9,11.7ZM23,5.28a1.66,1.66,0,0,1,1.66-1.66H44.9a1.66,1.66,0,0,1,1.66,1.66V6.75A1.66,1.66,0,0,1,44.9,8.41H24.66A1.66,1.66,0,0,1,23,6.75ZM21.82,51.89a1.66,1.66,0,0,1-1.66,1.66H13.38a1.66,1.66,0,0,1-1.66-1.66V50.8a1.67,1.67,0,0,1,1.66-1.66h6.78a1.67,1.67,0,0,1,1.66,1.66Zm36,0a1.66,1.66,0,0,1-1.66,1.66H49.4a1.66,1.66,0,0,1-1.66-1.66V50.8a1.67,1.67,0,0,1,1.66-1.66h6.78a1.67,1.67,0,0,1,1.66,1.66Zm0-17.25a1.67,1.67,0,0,1-1.66,1.66H13.38a1.67,1.67,0,0,1-1.66-1.66V13.18a1.67,1.67,0,0,1,1.66-1.66h42.8a1.67,1.67,0,0,1,1.66,1.66Z"/></g></svg>