<svg xmlns="http://www.w3.org/2000/svg" viewBox="0 0 63.64 76.77"><defs><style>.cls-1{fill:#b5b5b6;}</style></defs><g id="レイヤー_2" data-name="レイヤー 2"><path class="cls-1" d="M49.15,65.71l1.35,2H13.15l1.35-2H11.43L1.86,76.77H7.07l1.66-2.48H54.91l1.66,2.48h5.21L52.21,65.71ZM9.83,72.65,12,69.36H51.6l2.21,3.29ZM31.82,30C21.43,30,13,36.35,13,44.17s3.48,14.15,18.81,14.15S50.64,52,50.64,44.17,42.21,30,31.82,30Zm28.85-6.08c-4-7-4.92-9-6.32-12.82S48.85,0,31.82,0,10.69,7.31,9.29,11.11,7,16.92,3,23.93.17,41.76.17,51.38s8,12.22,10.62,12.22H52.86c2.6,0,10.61-2.6,10.61-12.22S64.68,31,60.67,23.93ZM7.84,48.61c0,1-.59,1.23-1.31.59L4.88,47.75a4.42,4.42,0,0,1-1.3-2.89V37.78c0-1,.65-1.3,1.45-.77l1.36.91a3.62,3.62,0,0,1,1.45,2.7Zm4.73-37.24c.82-1,2.68-5.47,7.68-5.47H43.64c5,0,6.86,4.42,7.68,5.47s.81,3.14-1.4,3.14-10.65.11-18,.11-15.76-.11-18-.11S11.76,12.41,12.57,11.37ZM31.82,60c-17.14,0-21-7.08-21-15.82s9.41-15.83,21-15.83,21,7.09,21,15.83S49,60,31.82,60ZM60,44.86a4.39,4.39,0,0,1-1.31,2.89L57,49.2c-.72.64-1.31.37-1.31-.59v-8a3.62,3.62,0,0,1,1.45-2.7L58.5,37c.8-.53,1.45-.19,1.45.77Z"/></g></svg>