<svg xmlns="http://www.w3.org/2000/svg" viewBox="0 0 69.69 59.96"><defs><style>.cls-1{fill:#b5b5b6;}</style></defs><g id="レイヤー_2" data-name="レイヤー 2"><path class="cls-1" d="M26,5.38H43.67a.7.7,0,0,0,.69-1.07L42.89,1.07A2,2,0,0,0,41.22,0H28.47A2,2,0,0,0,26.8,1.07L25.32,4.31A.7.7,0,0,0,26,5.38Z"/><path class="cls-1" d="M69.69,25.67c0-1.26-2-2.28-4.56-2.28a7.85,7.85,0,0,0-2.31.33,27.62,27.62,0,0,1-3.88-9.34l-.25-1.48A7.89,7.89,0,0,0,51.2,6.57H18.49A7.87,7.87,0,0,0,11,12.9l-.25,1.48a27.62,27.62,0,0,1-3.88,9.34,7.9,7.9,0,0,0-2.31-.33C2,23.39,0,24.41,0,25.67s1.7,2.09,3.92,2.25A20.22,20.22,0,0,0,1.36,36.8v8.63A6.41,6.41,0,0,0,4.7,51v6.58A2.36,2.36,0,0,0,7.06,60h5.35a2.36,2.36,0,0,0,2.35-2.35V51.86H54.92v5.75A2.36,2.36,0,0,0,57.27,60h5.36A2.36,2.36,0,0,0,65,57.61V51a6.4,6.4,0,0,0,3.35-5.6V36.8a20.22,20.22,0,0,0-2.56-8.88C68,27.76,69.69,26.82,69.69,25.67ZM12,19.1,13.27,13a5.5,5.5,0,0,1,5.15-4.19H51.26A5.49,5.49,0,0,1,56.41,13l1.25,6.06a3.35,3.35,0,0,1-3.41,4.19H15.43A3.35,3.35,0,0,1,12,19.1Zm4.3,22.68a2.14,2.14,0,0,1-2.14,2.14H7.42a2.14,2.14,0,0,1-2.14-2.14V39.39a2.14,2.14,0,0,1,2.14-2.15h6.76a2.14,2.14,0,0,1,2.14,2.15Zm31.77,7.93H21.6c-1.36,0-2.46-.08-2.46-1.43s1.1-3.47,2.46-3.47H48.09c1.35,0,2.45,2.11,2.45,3.47S49.44,49.71,48.09,49.71ZM64.4,41.78a2.14,2.14,0,0,1-2.14,2.14H55.51a2.14,2.14,0,0,1-2.14-2.14V39.39a2.14,2.14,0,0,1,2.14-2.15h6.75a2.14,2.14,0,0,1,2.14,2.15Z"/></g></svg>